<svg xmlns="http://www.w3.org/2000/svg" viewBox="0 0 805 600">
    <rect width="805" height="600" x="0" y="0" fill="#FFFFFF" id="backgorund" />
    <g id="viz">
        <clipPath id="serieClipPath"><rect x="-50" y="-10" width="805" height="600" /></clipPath>
        <g transform="translate(0,0)">
            <g transform="translate(50,10)" clip-path="url(#serieClipPath)">
                <g id="axis">
                    <g transform="translate(0,570)" fill="none" font-size="10" font-family="sans-serif" text-anchor="middle">
                        <path class="domain" stroke="currentColor" d="M0,6V0H740V6" />
                        <g class="tick" opacity="1" transform="translate(0,0)">
                            <line stroke="currentColor" y2="6" />
                            <text fill="currentColor" y="9" dy="0.71em">1970</text>
                        </g>
                        <g class="tick" opacity="1" transform="translate(73.99189573978754,0)">
                            <line stroke="currentColor" y2="6" />
                            <text fill="currentColor" y="9" dy="0.71em">1975</text>
                        </g>
                        <g class="tick" opacity="1" transform="translate(147.98379147957507,0)">
                            <line stroke="currentColor" y2="6" />
                            <text fill="currentColor" y="9" dy="0.71em">1980</text>
                        </g>
                        <g class="tick" opacity="1" transform="translate(222.01620852042493,0)">
                            <line stroke="currentColor" y2="6" />
                            <text fill="currentColor" y="9" dy="0.71em">1985</text>
                        </g>
                        <g class="tick" opacity="1" transform="translate(296.00810426021246,0)">
                            <line stroke="currentColor" y2="6" />
                            <text fill="currentColor" y="9" dy="0.71em">1990</text>
                        </g>
                        <g class="tick" opacity="1" transform="translate(370,0)">
                            <line stroke="currentColor" y2="6" />
                            <text fill="currentColor" y="9" dy="0.71em">1995</text>
                        </g>
                        <g class="tick" opacity="1" transform="translate(443.99189573978754,0)">
                            <line stroke="currentColor" y2="6" />
                            <text fill="currentColor" y="9" dy="0.71em">2000</text>
                        </g>
                        <g class="tick" opacity="1" transform="translate(518.0243127806374,0)">
                            <line stroke="currentColor" y2="6" />
                            <text fill="currentColor" y="9" dy="0.71em">2005</text>
                        </g>
                        <g class="tick" opacity="1" transform="translate(592.0162085204249,0)">
                            <line stroke="currentColor" y2="6" />
                            <text fill="currentColor" y="9" dy="0.71em">2010</text>
                        </g>
                        <g class="tick" opacity="1" transform="translate(666.0081042602125,0)">
                            <line stroke="currentColor" y2="6" />
                            <text fill="currentColor" y="9" dy="0.71em">2015</text>
                        </g>
                        <g class="tick" opacity="1" transform="translate(740,0)">
                            <line stroke="currentColor" y2="6" />
                            <text fill="currentColor" y="9" dy="0.71em">2020</text>
                        </g>
                        <text x="740" dy="-5" text-anchor="end" style="font-family: Arial, sans-serif; font-size: 12px; fill: rgb(123, 123, 123); font-weight: bold;">year-date</text>
                    </g>
                    <g transform="translate(0,0)" fill="none" font-size="10" font-family="sans-serif" text-anchor="end">
                        <path class="domain" stroke="currentColor" d="M0,570V0" />
                        <g class="tick" opacity="1" transform="translate(0,570)">
                            <line stroke="currentColor" x2="-6" />
                            <text fill="currentColor" x="-9" dy="0.32em">0</text>
                        </g>
                        <g class="tick" opacity="1" transform="translate(0,529.2857142857143)">
                            <line stroke="currentColor" x2="-6" />
                            <text fill="currentColor" x="-9" dy="0.32em">1,000</text>
                        </g>
                        <g class="tick" opacity="1" transform="translate(0,488.5714285714286)">
                            <line stroke="currentColor" x2="-6" />
                            <text fill="currentColor" x="-9" dy="0.32em">2,000</text>
                        </g>
                        <g class="tick" opacity="1" transform="translate(0,447.85714285714283)">
                            <line stroke="currentColor" x2="-6" />
                            <text fill="currentColor" x="-9" dy="0.32em">3,000</text>
                        </g>
                        <g class="tick" opacity="1" transform="translate(0,407.14285714285717)">
                            <line stroke="currentColor" x2="-6" />
                            <text fill="currentColor" x="-9" dy="0.32em">4,000</text>
                        </g>
                        <g class="tick" opacity="1" transform="translate(0,366.4285714285714)">
                            <line stroke="currentColor" x2="-6" />
                            <text fill="currentColor" x="-9" dy="0.32em">5,000</text>
                        </g>
                        <g class="tick" opacity="1" transform="translate(0,325.7142857142857)">
                            <line stroke="currentColor" x2="-6" />
                            <text fill="currentColor" x="-9" dy="0.32em">6,000</text>
                        </g>
                        <g class="tick" opacity="1" transform="translate(0,285)">
                            <line stroke="currentColor" x2="-6" />
                            <text fill="currentColor" x="-9" dy="0.32em">7,000</text>
                        </g>
                        <g class="tick" opacity="1" transform="translate(0,244.2857142857143)">
                            <line stroke="currentColor" x2="-6" />
                            <text fill="currentColor" x="-9" dy="0.32em">8,000</text>
                        </g>
                        <g class="tick" opacity="1" transform="translate(0,203.57142857142856)">
                            <line stroke="currentColor" x2="-6" />
                            <text fill="currentColor" x="-9" dy="0.32em">9,000</text>
                        </g>
                        <g class="tick" opacity="1" transform="translate(0,162.85714285714286)">
                            <line stroke="currentColor" x2="-6" />
                            <text fill="currentColor" x="-9" dy="0.32em">10,000</text>
                        </g>
                        <g class="tick" opacity="1" transform="translate(0,122.14285714285715)">
                            <line stroke="currentColor" x2="-6" />
                            <text fill="currentColor" x="-9" dy="0.32em">11,000</text>
                        </g>
                        <g class="tick" opacity="1" transform="translate(0,81.42857142857146)">
                            <line stroke="currentColor" x2="-6" />
                            <text fill="currentColor" x="-9" dy="0.32em">12,000</text>
                        </g>
                        <g class="tick" opacity="1" transform="translate(0,40.714285714285694)">
                            <line stroke="currentColor" x2="-6" />
                            <text fill="currentColor" x="-9" dy="0.32em">13,000</text>
                        </g>
                        <g class="tick" opacity="1" transform="translate(0,0)">
                            <line stroke="currentColor" x2="-6" />
                            <text fill="currentColor" x="-9" dy="0.32em">14,000</text>
                        </g>
                        <text x="4" text-anchor="start" dominant-baseline="hanging" style="font-family: Arial, sans-serif; font-size: 12px; fill: rgb(123, 123, 123); font-weight: bold;">Revenues in millions</text>
                    </g>
                </g>
                <g id="viz">
                    <g id="Tape">
                        <path
                            d="M44.41134596429745,546.3612857142857C51.806483408169974,546.3612857142857,51.806483408169974,543.5479285714285,59.201620852042495,543.5479285714285C66.59675829591501,543.5479285714285,66.59675829591501,541.8257142857143,73.99189573978754,541.8257142857143C81.38703318366007,541.8257142857143,81.38703318366007,536.2478571428571,88.78217062753258,536.2478571428571C96.19756872193626,536.2478571428571,96.19756872193626,526.8184285714286,103.61296681633995,526.8184285714286C111.00810426021246,526.8184285714286,111.00810426021246,513.0895714285714,118.40324170408499,513.0895714285714C125.79837914795752,513.0895714285714,125.79837914795752,518.5005,133.19351659183005,518.5005C140.58865403570258,518.5005,140.58865403570258,519.84,147.98379147957507,519.84C155.39918957397876,519.84,155.39918957397876,513.9852857142857,162.81458766838244,513.9852857142857C170.20972511225497,513.9852857142857,170.20972511225497,512.1653571428571,177.6048625561275,512.1653571428571C185,512.1653571428571,185,496.2705,192.3951374438725,496.2705C199.79027488774506,496.2705,199.79027488774506,472.94121428571424,207.18541233161758,472.94121428571424C214.60081042602127,472.94121428571424,214.60081042602127,471.8175,222.01620852042493,471.8175C229.41134596429745,471.8175,229.41134596429745,468.2346428571429,236.80648340816998,468.2346428571429C244.20162085204248,468.2346428571429,244.20162085204248,448.9157142857143,251.596758295915,448.9157142857143C258.99189573978754,448.9157142857143,258.99189573978754,429.8451428571429,266.3870331836601,429.8451428571429C273.80243127806375,429.8451428571429,273.80243127806375,425.8551428571429,281.2178293724674,425.8551428571429C288.61296681633996,425.8551428571429,288.61296681633996,418.1235,296.00810426021246,418.1235C303.40324170408496,418.1235,303.40324170408496,437.6785714285714,310.7983791479575,437.6785714285714C318.1935165918301,437.6785714285714,318.1935165918301,430.9566428571428,325.5886540357026,430.9566428571428C333.00405213010623,430.9566428571428,333.00405213010623,439.1320714285714,340.4194502245099,439.1320714285714C347.81458766838244,439.1320714285714,347.81458766838244,437.62564285714285,355.209725112255,437.62564285714285C362.6048625561275,437.62564285714285,362.6048625561275,466.5897857142857,370,466.5897857142857C377.3951374438725,466.5897857142857,377.3951374438725,484.71985714285717,384.790274887745,484.71985714285717C392.2056729821487,484.71985714285717,392.2056729821487,502.569,399.62107107655237,502.569C407.0162085204249,502.569,407.0162085204249,508.34635714285713,414.4113459642975,508.34635714285713C421.80648340817,508.34635714285713,421.80648340817,524.8234285714286,429.2016208520425,524.8234285714286C436.59675829591504,524.8234285714286,436.59675829591504,544.3255714285714,443.99189573978754,544.3255714285714C451.4072938341912,544.3255714285714,451.4072938341912,555.2044285714286,458.82269192859485,555.2044285714286C466.2178293724674,555.2044285714286,466.2178293724674,561.4581428571429,473.61296681633996,561.4581428571429C481.00810426021246,561.4581428571429,481.00810426021246,565.5987857142858,488.403241704085,565.5987857142858C495.7983791479575,565.5987857142858,495.7983791479575,569.0350714285714,503.19351659183,569.0350714285714C510.6089146862337,569.0350714285714,510.6089146862337,569.4666428571429,518.0243127806374,569.4666428571429C525.41945022451,569.4666428571429,525.41945022451,569.8493571428571,532.8145876683825,569.8493571428571C540.209725112255,569.8493571428571,540.209725112255,569.8778571428571,547.6048625561275,569.8778571428571C555,569.8778571428571,555,569.9633571428571,562.3951374438725,569.9633571428571"
                            stroke="#9467bd"
                            fill="none"
                        />
                        <text font-family="sans-serif" font-size="10" class="labels" x="296.00810426021246" y="418.1235" dx="0" dy="-4" text-anchor="middle">Tape</text>
                    </g>
                    <g id="Disc">
                        <path
                            d="M192.3951374438725,569.2997142857142C199.79027488774506,569.2997142857142,199.79027488774506,565.7942142857142,207.18541233161758,565.7942142857142C214.60081042602127,565.7942142857142,214.60081042602127,554.1417857142857,222.01620852042493,554.1417857142857C229.41134596429745,554.1417857142857,229.41134596429745,532.1316428571429,236.80648340816998,532.1316428571429C244.20162085204248,532.1316428571429,244.20162085204248,505.1177142857143,251.596758295915,505.1177142857143C258.99189573978754,505.1177142857143,258.99189573978754,484.5122142857142,266.3870331836601,484.5122142857142C273.80243127806375,484.5122142857142,273.80243127806375,464.6436428571429,281.2178293724674,464.6436428571429C288.61296681633996,464.6436428571429,288.61296681633996,429.22628571428567,296.00810426021246,429.22628571428567C303.40324170408496,429.22628571428567,303.40324170408496,391.96457142857145,310.7983791479575,391.96457142857145C318.1935165918301,391.96457142857145,318.1935165918301,351.29914285714284,325.5886540357026,351.29914285714284C333.00405213010623,351.29914285714284,333.00405213010623,303.02828571428574,340.4194502245099,303.02828571428574C347.81458766838244,303.02828571428574,347.81458766838244,223.0898571428571,355.209725112255,223.0898571428571C362.6048625561275,223.0898571428571,362.6048625561275,183.6906428571429,370,183.6906428571429C377.3951374438725,183.6906428571429,377.3951374438725,158.02028571428568,384.790274887745,158.02028571428568C392.2056729821487,158.02028571428568,392.2056729821487,155.21099999999993,399.62107107655237,155.21099999999993C407.0162085204249,155.21099999999993,407.0162085204249,96.52542857142856,414.4113459642975,96.52542857142856C421.80648340817,96.52542857142856,421.80648340817,39.13864285714293,429.2016208520425,39.13864285714293C436.59675829591504,39.13864285714293,436.59675829591504,26.17114285714284,443.99189573978754,26.17114285714284C451.4072938341912,26.17114285714284,451.4072938341912,41.170285714285775,458.82269192859485,41.170285714285775C466.2178293724674,41.170285714285775,466.2178293724674,78.83507142857142,473.61296681633996,78.83507142857142C481.00810426021246,78.83507142857142,481.00810426021246,110.12400000000002,488.403241704085,110.12400000000002C495.7983791479575,110.12400000000002,495.7983791479575,102.67735714285715,503.19351659183,102.67735714285715C510.6089146862337,102.67735714285715,510.6089146862337,140.82664285714287,518.0243127806374,140.82664285714287C525.41945022451,140.82664285714287,525.41945022451,187.8638571428571,532.8145876683825,187.8638571428571C540.209725112255,187.8638571428571,540.209725112255,265.9416428571428,547.6048625561275,265.9416428571428C555,265.9416428571428,555,346.97121428571427,562.3951374438725,346.97121428571427C569.8105355382761,346.97121428571427,569.8105355382761,393.9392142857143,577.2259336326798,393.9392142857143C584.6210710765524,393.9392142857143,584.6210710765524,431.8157142857143,592.0162085204249,431.8157142857143C599.4113459642974,431.8157142857143,599.4113459642974,443.5536428571429,606.80648340817,443.5536428571429C614.2016208520425,443.5536428571429,614.2016208520425,468.6140066850964,621.596758295915,468.6140066850964C629.0121563903188,468.6140066850964,629.0121563903188,482.6946537456557,636.4275544847224,482.6946537456557C643.8226919285948,482.6946537456557,643.8226919285948,497.50297089899357,651.2178293724675,497.50297089899357C658.61296681634,497.50297089899357,658.61296681634,511.0769174223643,666.0081042602125,511.0769174223643C673.403241704085,511.0769174223643,673.403241704085,523.9018724578328,680.7983791479575,523.9018724578328C688.2137772423612,523.9018724578328,688.2137772423612,526.8570109454229,695.6291753367649,526.8570109454229C703.0243127806375,526.8570109454229,703.0243127806375,541.5243672251786,710.41945022451,541.5243672251786C717.8145876683825,541.5243672251786,717.8145876683825,544.9556347278642,725.209725112255,544.9556347278642"
                            stroke="#1f77b4"
                            fill="none"
                        />
                        <text font-family="sans-serif" font-size="10" class="labels" x="443.99189573978754" y="26.17114285714284" dx="0" dy="-4" text-anchor="middle">Disc</text>
                    </g>
                    <g id="Download">
                        <path
                            d="M503.19351659183,562.5289285714285C510.6089146862337,562.5289285714285,510.6089146862337,532.3677857142857,518.0243127806374,532.3677857142857C525.41945022451,532.3677857142857,525.41945022451,502.82142857142856,532.8145876683825,502.82142857142856C540.209725112255,502.82142857142856,540.209725112255,472.59514285714283,547.6048625561275,472.59514285714283C555,472.59514285714283,555,460.6455,562.3951374438725,460.6455C569.8105355382761,460.6455,569.8105355382761,461.70000000000005,577.2259336326798,461.70000000000005C584.6210710765524,461.70000000000005,584.6210710765524,460.3401428571429,592.0162085204249,460.3401428571429C599.4113459642974,460.3401428571429,599.4113459642974,451.85528571428574,606.80648340817,451.85528571428574C614.2016208520425,451.85528571428574,614.2016208520425,447.19642877807144,621.596758295915,447.19642877807144C629.0121563903188,447.19642877807144,629.0121563903188,451.1020443401357,636.4275544847224,451.1020443401357C643.8226919285948,451.1020443401357,643.8226919285948,466.0515555327214,651.2178293724675,466.0515555327214C658.61296681634,466.0515555327214,658.61296681634,475.9228173017571,666.0081042602125,475.9228173017571C673.403241704085,475.9228173017571,673.403241704085,494.82057831261426,680.7983791479575,494.82057831261426C688.2137772423612,494.82057831261426,688.2137772423612,512.9100124629193,695.6291753367649,512.9100124629193C703.0243127806375,512.9100124629193,703.0243127806375,527.77523194065,710.41945022451,527.77523194065C717.8145876683825,527.77523194065,717.8145876683825,535.2242967627257,725.209725112255,535.2242967627257"
                            stroke="#ff7f0e"
                            fill="none"
                        />
                        <text font-family="sans-serif" font-size="10" class="labels" x="621.596758295915" y="447.19642877807144" dx="0" dy="-4" text-anchor="middle">Download</text>
                    </g>
                    <g id="Other">
                        <path
                            d="M281.2178293724674,565.3015714285715C288.61296681633996,565.3015714285715,288.61296681633996,562.9849285714286,296.00810426021246,562.9849285714286C303.40324170408496,562.9849285714286,303.40324170408496,565.1916428571428,310.7983791479575,565.1916428571428C318.1935165918301,565.1916428571428,318.1935165918301,563.5915714285715,325.5886540357026,563.5915714285715C333.00405213010623,563.5915714285715,333.00405213010623,561.3156428571428,340.4194502245099,561.3156428571428C347.81458766838244,561.3156428571428,347.81458766838244,560.5909285714285,355.209725112255,560.5909285714285C362.6048625561275,560.5909285714285,362.6048625561275,561.0306428571429,370,561.0306428571429C377.3951374438725,561.0306428571429,377.3951374438725,560.3873571428571,384.790274887745,560.3873571428571C392.2056729821487,560.3873571428571,392.2056729821487,556.8126428571429,399.62107107655237,556.8126428571429C407.0162085204249,556.8126428571429,407.0162085204249,549.3171428571429,414.4113459642975,549.3171428571429C421.80648340817,549.3171428571429,421.80648340817,554.6629285714286,429.2016208520425,554.6629285714286C436.59675829591504,554.6629285714286,436.59675829591504,558.5226428571428,443.99189573978754,558.5226428571428C451.4072938341912,558.5226428571428,451.4072938341912,556.3525714285714,458.82269192859485,556.3525714285714C466.2178293724674,556.3525714285714,466.2178293724674,557.9119285714286,473.61296681633996,557.9119285714286C481.00810426021246,557.9119285714286,481.00810426021246,553.3926428571428,488.403241704085,553.3926428571428C495.7983791479575,553.3926428571428,495.7983791479575,545.0136428571428,503.19351659183,545.0136428571428C510.6089146862337,545.0136428571428,510.6089146862337,544.9851428571428,518.0243127806374,544.9851428571428C525.41945022451,544.9851428571428,525.41945022451,551.4587142857142,532.8145876683825,551.4587142857142C540.209725112255,551.4587142857142,540.209725112255,550.0377857142857,547.6048625561275,550.0377857142857C555,550.0377857142857,555,560.5909285714285,562.3951374438725,560.5909285714285C569.8105355382761,560.5909285714285,569.8105355382761,552.9529285714285,577.2259336326798,552.9529285714285C584.6210710765524,552.9529285714285,584.6210710765524,554.7891428571428,592.0162085204249,554.7891428571428C599.4113459642974,554.7891428571428,599.4113459642974,555.7296428571428,606.80648340817,555.7296428571428C614.2016208520425,555.7296428571428,614.2016208520425,557.3358792594686,621.596758295915,557.3358792594686C629.0121563903188,557.3358792594686,629.0121563903188,557.698334271,636.4275544847224,557.698334271C643.8226919285948,557.698334271,643.8226919285948,558.4314112700229,651.2178293724675,558.4314112700229C658.61296681634,558.4314112700229,658.61296681634,558.4987867435136,666.0081042602125,558.4987867435136C673.403241704085,558.4987867435136,673.403241704085,558.7001029122022,680.7983791479575,558.7001029122022C688.2137772423612,558.7001029122022,688.2137772423612,558.7804638851529,695.6291753367649,558.7804638851529C703.0243127806375,558.7804638851529,703.0243127806375,557.0383147674236,710.41945022451,557.0383147674236C717.8145876683825,557.0383147674236,717.8145876683825,557.516129497995,725.209725112255,557.516129497995"
                            stroke="#2ca02c"
                            fill="none"
                        />
                        <text font-family="sans-serif" font-size="10" class="labels" x="518.0243127806374" y="544.9851428571428" dx="0" dy="-4" text-anchor="middle">Other</text>
                    </g>
                    <g id="Streaming">
                        <path
                            d="M503.19351659183,569.7190714285714C510.6089146862337,569.7190714285714,510.6089146862337,563.0948571428571,518.0243127806374,563.0948571428571C525.41945022451,563.0948571428571,525.41945022451,560.2692857142857,532.8145876683825,560.2692857142857C540.209725112255,560.2692857142857,540.209725112255,558.999,547.6048625561275,558.999C555,558.999,555,556.9144285714285,562.3951374438725,556.9144285714285C569.8105355382761,556.9144285714285,569.8105355382761,555.2736428571428,577.2259336326798,555.2736428571428C584.6210710765524,555.2736428571428,584.6210710765524,551.2062857142857,592.0162085204249,551.2062857142857C599.4113459642974,551.2062857142857,599.4113459642974,543.3891428571428,606.80648340817,543.3891428571428C614.2016208520425,543.3891428571428,614.2016208520425,527.9495553203571,621.596758295915,527.9495553203571C629.0121563903188,527.9495553203571,629.0121563903188,510.7770882156429,636.4275544847224,510.7770882156429C643.8226919285948,510.7770882156429,643.8226919285948,495.59610985392857,651.2178293724675,495.59610985392857C658.61296681634,495.59610985392857,658.61296681634,475.08283007657144,666.0081042602125,475.08283007657144C673.403241704085,475.08283007657144,673.403241704085,408.6877032086143,680.7983791479575,408.6877032086143C688.2137772423612,408.6877032086143,688.2137772423612,339.37212647164284,695.6291753367649,339.37212647164284C703.0243127806375,339.37212647164284,703.0243127806375,270.0673144525714,710.41945022451,270.0673144525714C717.8145876683825,270.0673144525714,717.8145876683825,210.4395049270714,725.209725112255,210.4395049270714"
                            stroke="#d62728"
                            fill="none"
                        />
                        <text font-family="sans-serif" font-size="10" class="labels" x="725.209725112255" y="210.4395049270714" dx="0" dy="-4" text-anchor="middle">Streaming</text>
                    </g>
                    <g id="Vinyl">
                        <path
                            d="M44.41134596429745,511.5342857142857C51.806483408169974,511.5342857142857,51.806483408169974,506.8928571428571,59.201620852042495,506.8928571428571C66.59675829591501,506.8928571428571,66.59675829591501,500.92821428571426,73.99189573978754,500.92821428571426C81.38703318366007,500.92821428571426,81.38703318366007,492.31307142857145,88.78217062753258,492.31307142857145C96.19756872193626,492.31307142857145,96.19756872193626,470.649,103.61296681633995,470.649C111.00810426021246,470.649,111.00810426021246,458.70342857142856,118.40324170408499,458.70342857142856C125.79837914795752,458.70342857142856,125.79837914795752,471.85414285714285,133.19351659183005,471.85414285714285C140.58865403570258,471.85414285714285,140.58865403570258,470.25,147.98379147957507,470.25C155.39918957397876,470.25,155.39918957397876,464.2202142857143,162.81458766838244,464.2202142857143C170.20972511225497,464.2202142857143,170.20972511225497,480.0987857142857,177.6048625561275,480.0987857142857C185,480.0987857142857,185,490.26921428571427,192.3951374438725,490.26921428571427C199.79027488774506,490.26921428571427,199.79027488774506,494.7803571428571,207.18541233161758,494.7803571428571C214.60081042602127,494.7803571428571,214.60081042602127,506.4246428571428,222.01620852042493,506.4246428571428C229.41134596429745,506.4246428571428,229.41134596429745,520.6909285714286,236.80648340816998,520.6909285714286C244.20162085204248,520.6909285714286,244.20162085204248,529.4322857142857,251.596758295915,529.4322857142857C258.99189573978754,529.4322857142857,258.99189573978754,540.9870000000001,266.3870331836601,540.9870000000001C273.80243127806375,540.9870000000001,273.80243127806375,556.2915,281.2178293724674,556.2915C288.61296681633996,556.2915,288.61296681633996,562.6347857142857,296.00810426021246,562.6347857142857C303.40324170408496,562.6347857142857,303.40324170408496,566.2013571428572,310.7983791479575,566.2013571428572C318.1935165918301,566.2013571428572,318.1935165918301,566.7469285714285,325.5886540357026,566.7469285714285C333.00405213010623,566.7469285714285,333.00405213010623,567.4838571428571,340.4194502245099,567.4838571428571C347.81458766838244,567.4838571428571,347.81458766838244,567.3535714285714,355.209725112255,567.3535714285714C362.6048625561275,567.3535714285714,362.6048625561275,567.0767142857143,370,567.0767142857143C377.3951374438725,567.0767142857143,377.3951374438725,566.5677857142857,384.790274887745,566.5677857142857C392.2056729821487,566.5677857142857,392.2056729821487,567.1947857142858,399.62107107655237,567.1947857142858C407.0162085204249,567.1947857142858,407.0162085204249,567.5693571428571,414.4113459642975,567.5693571428571C421.80648340817,567.5693571428571,421.80648340817,567.5693571428571,429.2016208520425,567.5693571428571C436.59675829591504,567.5693571428571,436.59675829591504,567.8014285714286,443.99189573978754,567.8014285714286C451.4072938341912,567.8014285714286,451.4072938341912,567.606,458.82269192859485,567.606C466.2178293724674,567.606,466.2178293724674,568.1515714285714,473.61296681633996,568.1515714285714C481.00810426021246,568.1515714285714,481.00810426021246,568.2411428571429,488.403241704085,568.2411428571429C495.7983791479575,568.2411428571429,495.7983791479575,568.404,503.19351659183,568.404C510.6089146862337,568.404,510.6089146862337,568.8844285714285,518.0243127806374,568.8844285714285C525.41945022451,568.8844285714285,525.41945022451,568.9577142857142,532.8145876683825,568.9577142857142C540.209725112255,568.9577142857142,540.209725112255,568.9047857142857,547.6048625561275,568.9047857142857C555,568.9047857142857,555,567.5734285714286,562.3951374438725,567.5734285714286C569.8105355382761,567.5734285714286,569.8105355382761,567.3006428571429,577.2259336326798,567.3006428571429C584.6210710765524,567.3006428571429,584.6210710765524,566.2868571428571,592.0162085204249,566.2868571428571C599.4113459642974,566.2868571428571,599.4113459642974,564.9514285714286,606.80648340817,564.9514285714286C614.2016208520425,564.9514285714286,614.2016208520425,563.2631653507136,621.596758295915,563.2631653507136C629.0121563903188,563.2631653507136,629.0121563903188,561.2986247669978,636.4275544847224,561.2986247669978C643.8226919285948,561.2986247669978,643.8226919285948,559.8480474659785,651.2178293724675,559.8480474659785C658.61296681634,559.8480474659785,658.61296681634,556.1924524361615,666.0081042602125,556.1924524361615C673.403241704085,556.1924524361615,673.403241704085,555.3301717648051,680.7983791479575,555.3301717648051C688.2137772423612,555.3301717648051,688.2137772423612,553.9345706197499,695.6291753367649,553.9345706197499C703.0243127806375,553.9345706197499,703.0243127806375,552.7162041482121,710.41945022451,552.7162041482121C717.8145876683825,552.7162041482121,717.8145876683825,549.4643304358864,725.209725112255,549.4643304358864"
                            stroke="#8c564b"
                            fill="none"
                        />
                        <text font-family="sans-serif" font-size="10" class="labels" x="118.40324170408499" y="458.70342857142856" dx="0" dy="-4" text-anchor="middle">Vinyl</text>
                    </g>
                </g>
            </g>
            <text y="4" x="4" style="font-family: Arial, sans-serif; font-size: 12px; fill: black; font-weight: bold; dominant-baseline: hanging;" />
        </g>
        <g id="grid"><rect x="0" y="0" width="805" height="600" fill="none" stroke="#ccc" /></g>
    </g>
</svg>
